<?xml version="1.0" encoding="utf-8"?>
<!-- Generator: Adobe Illustrator 19.0.0, SVG Export Plug-In . SVG Version: 6.00 Build 0)  -->
<svg version="1.1" id="Layer_1" xmlns="http://www.w3.org/2000/svg" xmlns:xlink="http://www.w3.org/1999/xlink" x="0px" y="0px"
	 viewBox="0 0 595.3 841.9" style="enable-background:new 0 0 595.3 841.9;" xml:space="preserve">
<style type="text/css">
	.st0{display:none;fill:none;stroke:#000000;stroke-miterlimit:10;}
	.st1{display:none;fill:#EEEAE3;}
	.st2{fill:#EEEAE3;stroke:#000000;stroke-width:3;stroke-miterlimit:10;}
	.st3{fill:#DED7CF;}
	.st4{fill:none;stroke:#000000;stroke-width:3;stroke-miterlimit:10;}
	.st5{fill:none;}
</style>
<circle id="XMLID_4_" class="st0" cx="273.4" cy="612.4" r="108.7"/>
<rect id="XMLID_1_" class="st1" width="595.3" height="841.9"/>
<path id="XMLID_2_" class="st2" d="M183.7,465.7"/>
<path id="XMLID_5_" class="st2" d="M-46.9,95"/>
<path id="XMLID_6_" class="st2" d="M-71.6,195"/>
<path id="XMLID_7_" class="st2" d="M621.7,240.3"/>
<g id="XMLID_19_">
	<path id="XMLID_14_" class="st3" d="M451.9,310c0,25.8-22.8,46.7-51,46.7H170.5c-28.2,0-51-20.9-51-46.7c0-15.6,8.3-29.4,21.2-37.9
		c0.6-23.2,19.6-42.2,44.1-45.2c4.9-21.2,25.4-37.1,49.9-37.1c5.1,0,10.1,0.7,14.8,2c9-7.5,21-12.1,34.2-12.1c12.5,0,24,4.1,32.9,11
		c3.3-0.6,6.7-0.9,10.1-0.9c22,0,40.7,12.7,47.9,30.5c25.3,2.6,45,22.3,45.1,46.2C438.5,273.4,451.9,290.3,451.9,310z"/>
	<path id="XMLID_9_" class="st4" d="M464,295.7c0,25.8-22.8,46.7-51,46.7H182.6c-28.2,0-51-20.9-51-46.7c0-15.6,8.3-29.4,21.2-37.9
		c0.6-23.2,19.6-42.2,44.1-45.2c4.9-21.2,25.4-37.1,49.9-37.1c5.1,0,10.1,0.7,14.8,2c9-7.5,21-12.1,34.2-12.1c12.5,0,24,4.1,32.9,11
		c3.3-0.6,6.7-0.9,10.1-0.9c22,0,40.7,12.7,47.9,30.5c25.3,2.6,45,22.3,45.1,46.2C450.6,259.1,464,276,464,295.7z"/>
	<path id="XMLID_3_" class="st4" d="M411.7,310.1c0-55.3-49.9-100-111.6-100"/>
	<path id="XMLID_8_" class="st4" d="M188.4,310.1c0-55.3,49.9-100,111.6-100"/>
	<path id="XMLID_x5F_11_x5F_" class="st5" d="M475.8,289.5c0,97.1-78.7,175.7-175.7,175.7s-175.7-78.7-175.7-175.7
		S203,113.7,300,113.7S475.8,192.4,475.8,289.5z"/>
	<text id="XMLID_13_">	<textPath  xlink:href="#XMLID_x5F_11_x5F_" startOffset="30333.334%">
<tspan  style="font-family:'LibreCaslonDisplay-Regular'; font-size:36px;">• THE PIEROGIS • </tspan>	</textPath>
</text>
	<path id="XMLID_x5F_12_x5F_" class="st5" d="M457.4,271c0,86.9-70.4,157.3-157.3,157.3S142.7,357.9,142.7,271
		S213.2,113.7,300,113.7S457.4,184.1,457.4,271z"/>
	<text id="XMLID_16_">	<textPath  xlink:href="#XMLID_x5F_12_x5F_" startOffset="14133.333%">
	</textPath>
</text>
</g>
</svg>
